<?xml version="1.0" encoding="UTF-8"?>
<svg id="Layer_1" data-name="Layer 1" xmlns="http://www.w3.org/2000/svg" viewBox="0 0 238.49 13.95">
  <polygon points="57.36 1.83 61.79 1.83 61.79 13.71 63.57 13.71 63.57 1.83 68.03 1.83 68.03 .24 57.36 .24 57.36 1.83"/>
  <polygon points="154.46 7.54 161.9 7.54 161.9 5.96 154.46 5.96 154.46 1.83 162.41 1.83 162.41 .24 152.67 .24 152.67 13.71 162.72 13.71 162.72 12.12 154.46 12.12 154.46 7.54"/>
  <path d="M183.23,9.61c-.32.95-.56,1.67-.72,2.16-.13-.44-.35-1.1-.64-1.99l-3.19-9.53h-2.68v13.47h1.72V2.25l3.89,11.46h1.61l3.91-11.27v11.27h1.72V.24h-2.4l-3.22,9.37Z"/>
  <path d="M144.43,11.56c-.71.58-1.61.89-2.53.86-.81,0-1.6-.22-2.29-.63-.72-.44-1.27-1.12-1.56-1.92-.35-.96-.52-1.98-.5-3,0-.88.14-1.75.42-2.59.26-.81.77-1.51,1.47-2,.76-.52,1.67-.78,2.59-.74.8-.03,1.59.21,2.24.67.66.55,1.14,1.3,1.36,2.14l1.75-.41c-.3-1.15-.98-2.17-1.92-2.89-.99-.71-2.18-1.07-3.4-1.03-1.14-.01-2.26.27-3.27.81-.99.54-1.79,1.37-2.29,2.38-.56,1.14-.83,2.4-.8,3.67,0,1.24.23,2.47.71,3.61.41,1.05,1.14,1.94,2.08,2.57,1.07.63,2.3.94,3.54.89,1.28.04,2.54-.37,3.56-1.15,1.03-.86,1.74-2.04,2.02-3.35l-1.78-.45c-.16.99-.66,1.9-1.41,2.57Z"/>
  <path d="M203.81.89c-1.02-.6-2.18-.91-3.36-.89-1.75-.06-3.44.63-4.65,1.9-1.27,1.45-1.91,3.33-1.8,5.25h0c0,1.16.26,2.31.77,3.36.49,1.04,1.28,1.91,2.26,2.51,1.02.62,2.2.94,3.4.92,1.14,0,2.27-.28,3.27-.83,1.01-.56,1.83-1.41,2.34-2.45.57-1.14.85-2.39.83-3.66.02-1.25-.25-2.49-.78-3.61-.5-1.04-1.29-1.9-2.28-2.48ZM203.74,11c-.84.93-2.05,1.45-3.31,1.41-1.25.03-2.44-.48-3.28-1.4-.92-1.06-1.39-2.44-1.31-3.84h0c0-2.03.45-3.47,1.36-4.34.87-.85,2.04-1.32,3.26-1.3.85-.01,1.68.22,2.4.68.72.46,1.29,1.12,1.63,1.9.39.91.58,1.88.56,2.87.09,1.45-.37,2.89-1.3,4.01Z"/>
  <polygon points="230.22 12.12 230.22 7.54 237.67 7.54 237.67 5.96 230.22 5.96 230.22 1.83 238.17 1.83 238.17 .24 228.44 .24 228.44 13.71 238.49 13.71 238.49 12.12 230.22 12.12"/>
  <path d="M221.01,1.4c-.57-.48-1.25-.81-1.98-.96-.79-.15-1.6-.21-2.4-.19h-4.64v13.47h4.86c.73,0,1.45-.07,2.16-.23.57-.13,1.11-.36,1.61-.68.48-.33.89-.74,1.23-1.22.41-.6.72-1.26.92-1.96.25-.88.37-1.8.35-2.72.02-1.09-.16-2.17-.53-3.2-.32-.89-.87-1.68-1.59-2.3ZM220.93,9.47c-.19.64-.53,1.22-.99,1.7-.34.33-.76.57-1.21.7-.68.19-1.38.27-2.09.25h-2.88V1.84h2.83c.78-.04,1.56.06,2.3.28.72.3,1.31.84,1.68,1.52.52,1,.76,2.12.69,3.25.02.88-.1,1.75-.35,2.59Z"/>
  <polygon points="128.71 10.82 121.63 .24 119.81 .24 119.81 13.71 121.51 13.71 121.51 3.13 128.59 13.71 130.41 13.71 130.41 .24 128.71 .24 128.71 10.82"/>
  <path d="M108.15.25l-5.17,13.47h1.9l1.48-4.08h5.63l1.57,4.08h2.03L110.07.25h-1.92ZM106.86,8.18l1.48-3.95c.31-.84.55-1.7.73-2.57.21.73.53,1.66.96,2.79l1.4,3.73h-4.57Z"/>
  <path d="M7.23,9.61c-.32.95-.56,1.67-.72,2.16-.13-.44-.35-1.1-.64-1.99L2.68.24H0v13.47h1.72V2.25l3.89,11.46h1.61l3.91-11.27v11.27h1.72V.24h-2.4l-3.22,9.37Z"/>
  <rect x="34.22" y=".24" width="1.78" height="13.47"/>
  <path d="M22.24.25l-5.17,13.47h1.89l1.48-4.08h5.63l1.57,4.08h2.03L24.16.25h-1.92ZM20.95,8.18l1.48-3.95c.31-.84.55-1.7.73-2.57.21.73.53,1.66.95,2.79l1.41,3.73h-4.57Z"/>
  <polygon points="50.85 10.82 43.77 .24 41.94 .24 41.94 13.71 43.65 13.71 43.65 3.13 50.73 13.71 52.55 13.71 52.55 .24 50.85 .24 50.85 10.82"/>
  <polygon points="96.93 10.82 89.86 .24 88.03 .24 88.03 13.71 89.74 13.71 89.74 3.13 96.81 13.71 98.64 13.71 98.64 .24 96.93 .24 96.93 10.82"/>
  <polygon points="74.5 7.54 81.95 7.54 81.95 5.96 74.5 5.96 74.5 1.83 82.45 1.83 82.45 .24 72.72 .24 72.72 13.71 82.77 13.71 82.77 12.12 74.5 12.12 74.5 7.54"/>
</svg>