<?xml version="1.0" encoding="UTF-8"?>
<svg id="Layer_1" data-name="Layer 1" xmlns="http://www.w3.org/2000/svg" viewBox="0 0 238.49 40.01">
  <defs>
    <style>
      .cls-1 {
        fill: #fff;
      }
    </style>
  </defs>
  <g id="Group_35077" data-name="Group 35077">
    <path id="Path_60585" data-name="Path 60585" class="cls-1" d="M237.66,28.4l-.03-.02c-1.12-2.34-2.39-4.61-3.81-6.78-2.46-4.26-5.21-9.17-7.68-13.48C224.12,4.62,222.22.08,217.17,0c-5.26-.08-6.99,4.56-8.9,7.91-6.05,10.63-18.41,32.04-18.41,32.04h5.7s11.8-20.88,17.66-31.42c.75-1.35,2.23-3.12,3.96-3.12,2.61,0,3.92,3.12,5.1,5.26,3.15,5.73,6.18,11.2,9.13,16.75.92,1.74,2.81,4.03,1.52,6.39-.85,1.54-2.54,1.44-4.95,1.44,0,.04-23.28,0-23.28,0v4.72h21.16c2.34.09,4.68.01,7.01-.23,3.34-.63,5.16-3.21,5.62-6.55v-.83c-.07-1.36-.35-2.69-.83-3.97"/>
    <path id="Path_60586" data-name="Path 60586" class="cls-1" d="M91.36,2.4h25.03l-25.43,35.51c-.22.29-.34.65-.34,1.01v1.04h29.38v-2.4h-25.54L119.83,2.16c.25-.33.39-.74.4-1.15V0h-28.88v2.4Z"/>
    <rect id="Rectangle_15481" data-name="Rectangle 15481" class="cls-1" x="130.01" y="0" width="2.9" height="39.98"/>
    <path id="Path_60587" data-name="Path 60587" class="cls-1" d="M182.65.1h-.02c-.2.09-.35.25-.45.45l-15.7,27.78c-.16.27-.3.54-.42.83-.12.29-.25.58-.35.89-.2-.58-.45-1.15-.74-1.69L148.84.54c-.1-.2-.26-.35-.46-.45-.2-.07-.42-.1-.63-.09h-1.98v39.99h2.52V5.91c0-.51-.03-1.03-.08-1.58l16.17,27.97c.2.44.65.73,1.14.74h.45c.49,0,.94-.29,1.14-.74l15.74-27.95c-.06.51-.09,1.03-.09,1.55v34.08h2.54V0h-2.01c-.21,0-.42.02-.62.09"/>
    <path id="Path_60588" data-name="Path 60588" class="cls-1" d="M81.72,32.24v-9.74c-5.35,8.94-10.45,17.46-10.45,17.46h5.93s1.88-3.2,4.52-7.72"/>
    <path id="Path_60589" data-name="Path 60589" class="cls-1" d="M81.69,17.49l.03-.02V7.74c-4.12,7.04-10.13,17.29-13.83,23.71-.78,1.35-2.32,3.12-4.12,3.12-2.72,0-4.07-3.12-5.3-5.26-3.27-5.73-6.42-11.2-9.5-16.75-.97-1.74-2.92-4.03-1.58-6.39.88-1.54,2.64-1.44,5.13-1.44,0-.05,24.2,0,24.2,0V.04h-21.99c-2.42-.09-4.85-.01-7.27.23-3.47.63-5.36,3.21-5.85,6.55v.83c.08,1.36.38,2.7.88,3.96,1.16,2.35,2.48,4.61,3.95,6.78,2.55,4.26,5.42,9.17,7.99,13.46,2.12,3.54,4.09,8.07,9.33,8.14,5.46.08,7.27-4.56,9.25-7.92,2.32-3.93,5.55-9.34,8.68-14.58"/>
    <path id="Path_60590" data-name="Path 60590" class="cls-1" d="M50.56,33.18h-.02v-.85c-.08-1.35-.38-2.69-.88-3.95-1.16-2.35-2.48-4.61-3.95-6.78-2.55-4.26-5.42-9.17-7.99-13.48C35.6,4.62,33.64.08,28.4,0c-5.45-.08-7.27,4.56-9.25,7.91C12.85,18.55,0,39.96,0,39.96h5.93s12.26-20.88,18.35-31.43c.78-1.35,2.32-3.12,4.12-3.12,2.72,0,4.07,3.12,5.3,5.26,3.27,5.73,6.42,11.2,9.5,16.73.97,1.74,2.92,4.03,1.58,6.39-.88,1.54-2.64,1.44-5.15,1.44,0,.03-24.2,0-24.2,0v4.72h21.99c2.43.09,4.86.01,7.28-.23,3.47-.63,5.36-3.23,5.85-6.55"/>
  </g>
</svg>