<?xml version="1.0" encoding="UTF-8"?>
<svg id="Layer_1" data-name="Layer 1" xmlns="http://www.w3.org/2000/svg" viewBox="0 0 141.73 60.27">
  <defs>
    <style>
      .cls-1 {
        fill: #fff;
      }

      .cls-2 {
        fill: #012169;
      }

      .cls-3 {
        fill: #c8102e;
      }
    </style>
  </defs>
  <path d="M141.23,16.87c-.55-1.37-1.48-2.66-2.26-4.03-1.46-2.53-3.1-5.46-4.57-8.01C133.2,2.74,132.07.04,129.07,0c-3.12-.04-4.16,2.71-5.29,4.7-3.6,6.32-10.95,19.04-10.95,19.04h3.39s7.01-12.41,10.49-18.68c.45-.8,1.33-1.85,2.35-1.85,1.55,0,2.33,1.85,3.03,3.12,1.87,3.4,3.67,6.66,5.43,9.95.55,1.03,1.67,2.4.9,3.8-.5.92-1.51.86-2.94.86,0,.02-13.84,0-13.84,0v2.8h12.57s2.96.09,4.16-.14c1.99-.37,3.06-1.91,3.35-3.89v-.5c-.07-.87-.22-1.67-.5-2.35Z"/>
  <path d="M71.32,22.34h-15.18L71.22,1.28c.16-.22.24-.45.24-.69V0h-17.16v1.43h14.88l-15.11,21.11c-.13.19-.2.39-.2.6v.62h17.47v-1.43Z"/>
  <rect x="77.27" y="0" width="1.73" height="23.76"/>
  <path d="M88.12,3.51c0-.3-.02-.62-.05-.94l9.61,16.63c.17.29.39.44.67.44h.27c.29,0,.51-.15.67-.44l9.35-16.61c-.03.33-.05.63-.05.92v20.25h1.51V0h-1.19c-.16,0-.28.02-.37.05-.09.03-.18.12-.27.27l-9.34,16.51c-.09.16-.17.32-.24.5-.07.17-.14.35-.21.53-.12-.36-.27-.69-.44-1.01L88.46.32c-.09-.15-.18-.24-.28-.27-.1-.03-.22-.05-.38-.05h-1.18v23.76h1.49V3.51Z"/>
  <path d="M48.57,19.16v-5.79c-3.18,5.32-6.21,10.37-6.21,10.37h3.53s1.11-1.9,2.69-4.58Z"/>
  <path d="M27.61,10.92c1.52,2.53,3.22,5.45,4.75,8,1.26,2.1,2.43,4.8,5.55,4.84,3.24.04,4.32-2.71,5.5-4.7,1.38-2.34,3.3-5.55,5.16-8.67v-5.79c-2.45,4.18-6.01,10.28-8.22,14.1-.46.8-1.38,1.85-2.44,1.85-1.62,0-2.42-1.85-3.15-3.12-1.94-3.4-3.82-6.66-5.64-9.95-.57-1.03-1.74-2.4-.94-3.8.52-.92,1.57-.86,3.05-.86,0-.02,14.38,0,14.38,0V.02h-13.07s-3.08-.09-4.32.14c-2.06.37-3.19,1.91-3.48,3.89v.5c.07.87.23,1.67.52,2.35.57,1.37,1.53,2.66,2.35,4.03Z"/>
  <path d="M14.43,5.07c.46-.8,1.38-1.85,2.44-1.85,1.62,0,2.42,1.85,3.15,3.12,1.94,3.4,3.82,6.66,5.64,9.95.57,1.03,1.74,2.39.94,3.8-.52.92-1.57.86-3.06.86,0,.02-14.38,0-14.38,0v2.8h13.07s3.08.09,4.32-.14c2.06-.37,3.19-1.91,3.48-3.89v-.5c-.07-.87-.23-1.67-.52-2.35-.57-1.37-1.53-2.66-2.35-4.03-1.52-2.53-3.22-5.46-4.75-8.01C21.16,2.74,19.99.04,16.87,0c-3.24-.04-4.32,2.71-5.5,4.7C7.64,11.03,0,23.74,0,23.74h3.53S10.81,11.34,14.43,5.07Z"/>
  <path d="M10.24,34.84c-1.04-.62-2.21-.93-3.51-.93-1.98,0-3.6.66-4.85,1.98C.63,37.21,0,39.03,0,41.37c0,1.23.27,2.4.81,3.51.54,1.11,1.33,1.98,2.37,2.62,1.04.64,2.22.96,3.55.96,1.22,0,2.36-.29,3.41-.87,1.05-.58,1.87-1.43,2.45-2.56s.86-2.4.86-3.83-.27-2.66-.82-3.77c-.55-1.11-1.34-1.97-2.38-2.59ZM10.17,45.39c-.9.98-2.06,1.48-3.46,1.48s-2.52-.49-3.43-1.46c-.91-.97-1.37-2.31-1.37-4,0-2.12.47-3.63,1.42-4.53.95-.9,2.08-1.36,3.4-1.36.93,0,1.76.23,2.51.7s1.31,1.13,1.7,1.99c.39.85.58,1.85.58,3,0,1.81-.45,3.21-1.36,4.19Z"/>
  <polygon points="33.28 35.82 33.28 34.16 23.79 34.16 23.79 48.22 25.65 48.22 25.65 41.83 32.25 41.83 32.25 40.17 25.65 40.17 25.65 35.82 33.28 35.82"/>
  <polygon points="53.13 35.82 53.13 34.16 43.65 34.16 43.65 48.22 45.51 48.22 45.51 41.83 52.11 41.83 52.11 40.17 45.51 40.17 45.51 35.82 53.13 35.82"/>
  <rect x="63.72" y="34.16" width="1.86" height="14.06"/>
  <path d="M79.09,47.53c.95.62,2.18.93,3.7.93s2.7-.4,3.72-1.2,1.72-1.97,2.1-3.5l-1.86-.47c-.26,1.18-.74,2.07-1.47,2.68-.72.6-1.6.9-2.65.9-.86,0-1.65-.22-2.39-.66s-1.28-1.11-1.63-2c-.35-.89-.52-1.94-.52-3.13,0-.93.15-1.83.44-2.7.29-.87.8-1.57,1.53-2.09.73-.52,1.63-.78,2.71-.78.94,0,1.72.23,2.34.7.62.47,1.09,1.21,1.42,2.23l1.83-.43c-.38-1.3-1.05-2.3-2-3.02-.96-.72-2.14-1.07-3.55-1.07-1.24,0-2.38.28-3.41.85-1.03.57-1.83,1.39-2.39,2.48-.56,1.09-.84,2.37-.84,3.83,0,1.34.25,2.6.74,3.77.5,1.17,1.22,2.06,2.17,2.68Z"/>
  <rect x="99.07" y="34.16" width="1.86" height="14.06"/>
  <path d="M119.92,43.96l1.64,4.26h2.12l-5.75-14.06h-2l-5.4,14.06h1.98l1.54-4.26h5.88ZM116.13,38.32c.33-.89.58-1.78.76-2.69.22.76.55,1.73,1,2.92l1.47,3.89h-4.77l1.54-4.12Z"/>
  <polygon points="134.81 34.16 132.95 34.16 132.95 48.22 141.73 48.22 141.73 46.56 134.81 46.56 134.81 34.16"/>
  <rect class="cls-2" x="115.86" y="58.85" width="25.87" height="1.42"/>
  <rect class="cls-2" y="58.85" width="25.87" height="1.42"/>
  <rect class="cls-1" x="97.11" y="58.85" width="18.75" height="1.42"/>
  <rect class="cls-1" x="25.87" y="58.85" width="18.74" height="1.42"/>
  <rect class="cls-3" x="44.61" y="58.85" width="52.5" height="1.42"/>
</svg>